<svg width="44" height="44" viewBox="0 0 44 44" fill="none" xmlns="http://www.w3.org/2000/svg">
<path d="M44 22C44 34.1503 34.1503 44 22 44C9.84974 44 0 34.1503 0 22C0 9.84974 9.84974 0 22 0C34.1503 0 44 9.84974 44 22Z" fill="#CCD2DC"/>
<mask id="mask0_1_6" style="mask-type:alpha" maskUnits="userSpaceOnUse" x="0" y="0" width="44" height="44">
<circle cx="22" cy="22" r="22" fill="#0098FF"/>
</mask>
<g mask="url(#mask0_1_6)">
<path d="M17.1545 30.5203L18.4121 25.9803C17.4135 25.8298 16.4998 25.332 15.8317 24.5744C15.1637 23.8169 14.784 22.848 14.7595 21.8381L14.5432 13.1425L27.7174 15.1322L27.0926 31.7862L27.106 32.1922C27.1377 33.286 26.8077 34.3597 26.167 35.2468C25.5264 36.1338 24.6109 36.7846 23.5627 37.0981L23.2103 37.2023C22.0383 37.5517 20.7787 37.4566 19.6724 36.9352C18.6246 36.4424 17.7818 35.5988 17.2899 34.5503C16.7979 33.5019 16.6877 32.3145 16.9783 31.1933L17.1545 30.5203Z" fill="#B7AE8A"/>
<path d="M12.1135 11.882C13.0774 12.4428 13.6835 12.1224 14.6581 17.5704C14.7943 17.0203 14.2923 10.2743 14.2923 10.2743C14.2923 10.2743 12.2737 10.9019 12.1135 11.882Z" fill="#15263E"/>
<path d="M26.1021 19.1408C27.2449 21.117 25.8645 23.8544 27.56 25.6358C27.56 19.9046 33.0977 9.29149 24.3025 7.78793C22.4334 7.46745 19.6005 7.73986 18.6953 6.04133C18.4951 5.66478 17.4297 7.97487 17.7928 8.43155C16.2762 8.43155 14.8557 8.07635 13.0294 6.89326C12.5968 6.6262 10.9521 9.83096 14.6742 13.4497C16.8102 15.3191 20.3641 15.2417 21.8513 15.9734C22.188 16.1393 22.4887 16.3701 22.7361 16.6523C22.9835 16.9346 23.1728 17.263 23.2932 17.6185L23.9661 19.6001H24.7163L24.8659 18.3129L26.1021 19.1408Z" fill="#15263E"/>
<path d="M22.4662 25.9833L17.558 29.0569L18.4101 25.9833L22.4662 25.9833Z" fill="#15263E"/>
<path d="M26.3745 20.0595C27.2136 20.0595 27.8938 19.3791 27.8938 18.5399C27.8938 17.7006 27.2136 17.0203 26.3745 17.0203C25.5354 17.0203 24.8552 17.7006 24.8552 18.5399C24.8552 19.3791 25.5354 20.0595 26.3745 20.0595Z" fill="#B7AE8A"/>
<path d="M10.1393 32.9756C7.71448 33.1708 3.70284 37.687 3 38.5C7.30491 40.6139 21.9155 46.5 25.5 46.5C29.0845 46.5 34.9584 39.3171 38.9998 37.9756C38.6483 36.9594 37.761 34.7073 37.023 33.8293C36.285 32.9513 30.2142 32.2439 27.2711 32C26.6561 32.5285 24.6354 33.6342 21.4726 33.8293C18.3098 34.0244 16.992 32.6911 16.7284 32C15.5424 32.2439 12.5641 32.7805 10.1393 32.9756Z" fill="url(#paint0_linear_1_6)"/>
</g>
<defs>
<linearGradient id="paint0_linear_1_6" x1="3" y1="39.4979" x2="38.9998" y2="39.4979" gradientUnits="userSpaceOnUse">
<stop stop-color="#0098FF"/>
<stop offset="1" stop-color="#22FFBB"/>
</linearGradient>
</defs>
</svg>
